<?xml version="1.0" standalone="no"?>
<!DOCTYPE svg PUBLIC "-//W3C//DTD SVG 20010904//EN"
 "http://www.w3.org/TR/2001/REC-SVG-20010904/DTD/svg10.dtd">
<svg version="1.0" xmlns="http://www.w3.org/2000/svg"
 width="672.000000pt" height="672.000000pt" viewBox="0 0 672.000000 672.000000"
 preserveAspectRatio="xMidYMid meet">
<metadata>
Created by potrace 1.14, written by Peter Selinger 2001-2017
</metadata>
<g transform="translate(0.000000,672.000000) scale(0.100000,-0.100000)"
fill="#000000" stroke="none">
<path d="M3137 6252 c-10 -10 -17 -22 -17 -27 0 -4 -15 -31 -32 -59 -18 -28
-38 -60 -45 -71 -7 -11 -53 -87 -103 -170 -50 -82 -96 -159 -103 -170 -7 -11
-28 -44 -47 -75 -19 -30 -35 -57 -35 -60 -1 -7 -42 -73 -53 -85 -5 -6 -11 -15
-13 -20 -2 -6 -26 -46 -52 -90 -64 -107 -69 -116 -88 -145 -9 -14 -26 -41 -37
-60 -10 -19 -77 -129 -147 -245 -70 -115 -135 -222 -144 -237 -9 -15 -89 -148
-179 -295 -89 -147 -170 -281 -180 -298 -9 -16 -20 -31 -24 -33 -5 -2 -8 -8
-8 -14 0 -6 -12 -29 -27 -52 -16 -22 -37 -58 -48 -79 -11 -21 -27 -46 -35 -55
-8 -9 -21 -28 -28 -42 -14 -30 -38 -70 -75 -128 -15 -23 -37 -59 -48 -80 -11
-20 -49 -84 -85 -141 -35 -57 -64 -107 -64 -112 0 -5 -4 -9 -10 -9 -5 0 -10
-5 -10 -11 0 -6 -13 -30 -30 -54 -16 -24 -30 -46 -30 -48 0 -5 -110 -186 -159
-262 -14 -22 -26 -42 -26 -45 0 -3 -12 -23 -26 -45 -14 -22 -32 -51 -39 -65
-7 -14 -16 -27 -19 -30 -3 -3 -15 -21 -25 -40 -11 -19 -34 -57 -51 -85 -36
-56 -412 -678 -429 -710 -6 -11 -13 -22 -16 -25 -6 -5 -259 -424 -299 -494
-13 -22 -35 -59 -50 -81 -48 -72 -93 -182 -105 -258 -39 -245 64 -487 269
-631 56 -40 145 -83 185 -91 10 -2 35 -8 56 -14 40 -11 5543 -11 5574 0 8 3
31 9 50 13 129 30 271 133 357 261 73 109 107 223 106 358 0 138 -11 173 -133
432 -23 50 -57 122 -75 160 -68 145 -118 253 -155 330 -62 132 -119 253 -185
395 -34 74 -90 193 -124 264 -33 70 -61 130 -61 132 0 17 -175 355 -195 379
-15 17 -30 35 -33 40 -17 25 -112 100 -167 130 -33 19 -96 44 -140 56 l-80 23
-1113 0 c-612 1 -1117 -1 -1121 -4 -3 -3 -6 -146 -6 -317 0 -272 2 -313 15
-314 8 -1 492 -2 1075 -3 l1060 -1 25 -50 c14 -27 45 -93 69 -145 24 -52 61
-131 82 -175 82 -174 128 -273 157 -335 16 -36 51 -110 77 -165 26 -55 62
-131 80 -170 18 -38 52 -110 75 -160 79 -167 113 -240 114 -245 2 -5 38 -82
91 -192 l33 -67 -73 1 c-40 0 -78 -3 -85 -7 -9 -6 -11 -4 -5 5 5 8 4 11 -3 6
-11 -7 -61 -8 -175 -4 -37 2 -67 1 -67 -2 0 -3 -21 -4 -47 -2 -107 5 -171 4
-183 -3 -9 -6 -11 -4 -5 5 5 8 4 11 -3 6 -11 -7 -61 -8 -175 -4 -37 2 -67 0
-67 -3 0 -3 -22 -3 -50 1 -27 3 -55 3 -62 -2 -7 -4 -21 -5 -31 -2 -24 7 -177
11 -177 4 0 -3 -21 -4 -47 -2 -107 5 -171 4 -183 -3 -9 -6 -11 -4 -5 5 5 8 4
11 -3 6 -11 -7 -61 -8 -175 -4 -37 2 -67 1 -67 -2 0 -3 -21 -4 -47 -2 -107 5
-171 4 -183 -3 -9 -6 -11 -4 -5 5 5 8 4 11 -3 6 -11 -7 -61 -8 -175 -4 -37 2
-67 1 -67 -2 0 -4 -106 -4 -120 0 -5 2 -125 1 -138 -1 -4 -1 -11 0 -17 1 -10
2 -128 1 -143 -1 -4 -1 -11 0 -17 1 -10 2 -128 1 -143 -1 -4 -1 -11 0 -17 1
-5 1 -44 1 -85 0 -41 0 -82 -1 -90 -1 -8 0 -54 1 -103 3 -48 2 -87 1 -87 -2 0
-3 -21 -4 -47 -2 -107 5 -171 4 -183 -3 -9 -6 -11 -4 -5 5 5 8 4 11 -3 6 -11
-7 -61 -8 -175 -4 -37 2 -67 1 -67 -2 0 -3 -21 -4 -47 -2 -107 5 -171 4 -183
-3 -9 -6 -11 -4 -5 5 5 8 4 11 -3 6 -11 -7 -61 -8 -175 -4 -37 2 -67 1 -67 -2
0 -4 -106 -4 -120 0 -5 2 -125 1 -138 -1 -4 -1 -11 0 -17 1 -10 2 -128 1 -143
-1 -4 -1 -11 0 -17 1 -10 2 -128 1 -143 -1 -4 -1 -11 0 -17 1 -5 1 -44 1 -85
0 -41 0 -82 -1 -90 -1 -8 0 -54 1 -103 3 -48 2 -87 1 -87 -2 0 -3 -21 -4 -47
-2 -70 3 -167 4 -178 2 -5 -1 -20 -2 -32 -1 -19 1 -20 4 -10 26 7 14 15 25 20
25 4 0 7 4 7 9 0 13 73 135 82 139 5 2 8 7 8 11 0 10 187 321 205 341 8 9 15
21 15 26 0 5 34 63 75 129 41 66 84 136 95 155 11 19 30 52 42 72 13 20 65
106 116 190 52 84 98 160 103 168 109 178 159 264 159 271 0 5 5 9 10 9 6 0
10 5 10 11 0 6 12 30 28 53 15 22 36 58 47 79 11 20 23 37 27 37 5 0 8 5 8 10
0 8 58 108 169 290 6 8 56 92 113 185 56 94 105 172 108 175 3 3 12 19 21 35
9 17 45 77 81 135 35 58 71 116 79 130 8 14 17 27 20 30 4 3 9 15 13 28 4 12
12 22 17 22 5 0 9 4 9 9 0 5 24 48 53 96 102 167 178 294 345 570 62 105 122
201 131 215 10 14 28 45 42 70 13 25 26 47 29 50 6 5 206 335 242 400 11 19
35 58 52 85 43 66 62 97 84 137 11 18 54 89 96 158 43 69 82 134 89 145 6 11
19 31 27 45 9 14 31 50 48 82 l32 56 -25 16 c-14 9 -28 16 -31 15 -4 0 -10 3
-13 8 -3 6 -51 36 -106 69 -55 32 -101 62 -103 66 -2 5 -8 8 -13 8 -5 0 -59
32 -121 70 -62 39 -117 70 -124 70 -6 0 -18 -8 -27 -18z"/>
</g>
</svg>
